<svg xmlns="http://www.w3.org/2000/svg" version="1.1" xmlns:xlink="http://www.w3.org/1999/xlink" width="702.73" height="686.68"><svg xmlns="http://www.w3.org/2000/svg" version="1.1" xmlns:xlink="http://www.w3.org/1999/xlink" width="702.73" height="686.68"><svg xmlns="http://www.w3.org/2000/svg" id="Layer_1" data-name="Layer 1" viewBox="0 0 702.73 686.68"><defs><style>.cls-1{fill:#22c55e}</style></defs><path d="M324.05 25.7a.73.73 0 0 1 .77.74.86.86 0 0 1-.23.59L11.2 340.41a4.93 4.93 0 0 0-.64 6.12 113.58 113.58 0 0 0 14.84 17.82q141.27 141.86 150.9 151.11Q266.08 601.93 324.11 659a1.44 1.44 0 0 1-1 2.5H10.4a3.4 3.4 0 0 1-3.4-3.4V28.2a2.52 2.52 0 0 1 2.55-2.5Z" class="cls-1"></path><path d="M334.11 659.22V524.87a17.72 17.72 0 0 0-5.27-12.6L159.76 346.53a3.94 3.94 0 0 1-.09-5.6l.09-.09 171.42-165.47a7 7 0 0 0 2.13-5.05V26.76a1.59 1.59 0 0 1 1.59-1.59h252.6a6.36 6.36 0 0 1 4.41 1.83l98.29 96.37a15.2 15.2 0 0 1 4.58 10.75q.48 101.33.63 199.29v8.67q.06 136 .32 205.84.06 7.88-8.19 16.44-45 46.7-99.62 95.2a6.71 6.71 0 0 1-4.47 1.71H336.13a2 2 0 0 1-2.02-2.05ZM693 343 475.59 129.9a2.82 2.82 0 0 0-3.94 0l-73.72 71.16a6.23 6.23 0 0 0-.19 8.8l.14.14 134.41 131.74a4.43 4.43 0 0 1 .08 6.25.6.6 0 0 1-.08.08L399.74 476a4.82 4.82 0 0 0-.05 6.81l.05.06 72.76 71.27a2.87 2.87 0 0 0 4 .05L693 345.15a1.49 1.49 0 0 0 0-2.11Z" class="cls-1"></path></svg></svg><style>@media (prefers-color-scheme: light) { :root { filter: none; } }
@media (prefers-color-scheme: dark) { :root { filter: none; } }
</style></svg>